<svg xmlns="http://www.w3.org/2000/svg" viewBox="0 0 261.3 234.17"><defs><style>.cls-1{fill:#6f6f6f;}.cls-2{fill:#e78d6d;}.cls-3{fill:#00b2c0;}.cls-4{fill:none;stroke:#fff;stroke-miterlimit:10;}</style></defs><g id="Layer_2" data-name="Layer 2"><g id="Layer_1-2" data-name="Layer 1"><path class="cls-1" d="M138.48,44.06V4.47A4.46,4.46,0,0,0,134,0H124a4.47,4.47,0,0,0-4.47,4.47V44a4.47,4.47,0,0,1-1.8,3.59L85.2,71.69a4.47,4.47,0,0,0-.93,6.25l6,8.12a4.46,4.46,0,0,0,6.24.93l30-22.22a4.48,4.48,0,0,1,4.9-.28l32.92,19a4.47,4.47,0,0,0,6.1-1.64l5-8.72a4.46,4.46,0,0,0-1.64-6.09l-33.1-19.15A4.46,4.46,0,0,1,138.48,44.06Z"/><path class="cls-2" d="M176.46,44.06c9.89-1.5,23.08,10.41,26.63,14.53,4.85,5.62,10.5,11.49,14.51,17.49A343.66,343.66,0,0,1,236,107.23c11.66,22.45,19.31,42.17,20.43,50.14,1.63,11.57,13.29,42.91-6.61,63.37-14.09,14.49-21.83,14.4-26.46,12.59-1-.4-5.07-1.43-7.67-2.89a106.36,106.36,0,0,0-22.22-9.07c-18.39-5.45-20-1.91-24.47-6.06s-6.9-13.5-7.73-19.32c-4.11-29-3-58-3.41-87.17-.18-13.26,3.3-41.23,5.55-48.74C164.47,56.51,169.35,45.14,176.46,44.06Z"/><path class="cls-3" d="M86.49,44.06C76.41,42.56,63,54.47,59.34,58.59c-4.94,5.62-10.7,11.49-14.79,17.49a345.84,345.84,0,0,0-18.76,31.15C13.9,129.68,6.1,149.4,5,157.37c-1.65,11.57-13.54,42.91,6.75,63.37,14.36,14.49,22.25,14.4,27,12.59,1-.4,5.17-1.43,7.81-2.89a110.15,110.15,0,0,1,22.66-9.07c18.75-5.45,20.41-1.91,24.95-6.06s7-13.5,7.88-19.32c4.19-29,3.07-58,3.48-87.17.19-13.26-3.37-41.23-5.65-48.74C98.72,56.51,93.74,45.14,86.49,44.06Z"/><polyline class="cls-4" points="0.26 195.21 7.84 195.21 7.84 184.43 49.11 184.43 49.11 195.21 25.7 195.21 25.7 160.51 49.11 160.51 49.11 179.71 42.71 179.71 42.71 144.17 50.12 144.17 50.12 114.02 64.61 123.62 64.61 191.16 60.06 191.16 60.06 137.6 79.6 137.6 79.6 189.14 72.02 189.14 72.02 174.82 95.26 174.82 95.26 195.21 102.28 195.21"/><polyline class="cls-4" points="261.04 195.21 254.82 195.21 254.82 184.43 213.22 184.43 213.22 195.21 236.82 195.21 236.82 160.51 213.22 160.51 213.22 179.71 219.68 179.71 219.68 144.17 212.21 144.17 212.21 114.02 197.61 123.62 197.61 191.16 202.19 191.16 202.19 137.6 182.5 137.6 182.5 189.14 190.13 189.14 190.13 174.82 166.71 174.82 166.71 195.21 161.16 195.21"/></g></g></svg>