<svg xmlns="http://www.w3.org/2000/svg" viewBox="0 0 263.78 37.05"><defs><style>.cls-1{fill:#00b2c0;}.cls-2{fill:#e78d6d;}</style></defs><g id="Layer_2" data-name="Layer 2"><g id="LOGO"><path class="cls-1" d="M40.63,13.25v16.4H34.45V13.44c0-3.89-2.29-5.69-5.34-5.69-3.36,0-5.76,1.83-5.76,6.07V29.65H17.17V13.44c0-3.89-2.06-5.69-5.11-5.69-3.28,0-5.72,1.83-5.72,6.07V29.65H.16V12c0-1.89-.74-5.48,1-6.7a8.36,8.36,0,0,1,1.49-.76A16.07,16.07,0,0,1,6.11,3.15a18.59,18.59,0,0,1,0,3.08C7.75,3.86,10.49,2.49,14,2.49c3.7,0,6.49,1.41,8,3.93,1.84-2.56,5-3.93,8.63-3.93C36.85,2.49,40.63,6.19,40.63,13.25Z" transform="translate(0 0)"/><path class="cls-1" d="M64.47,17.94V29.65H58.9V27.09C57.79,29,55.66,30,52.64,30,47.84,30,45,27.28,45,23.74s2.55-6.14,8.81-6.14h4.73c0-2.56-1.53-4.05-4.73-4.05a9.9,9.9,0,0,0-5.92,1.91L45.74,11.3a15.79,15.79,0,0,1,8.85-2.48C60.84,8.82,64.47,11.72,64.47,17.94Zm-5.95,5.22V21.07H54.44c-2.79,0-3.67,1-3.67,2.4S52,26,54.13,26A4.4,4.4,0,0,0,58.52,23.16Z" transform="translate(0 0)"/><path class="cls-1" d="M71.09,3.23a7,7,0,0,1,1.43-.75,13.6,13.6,0,0,1,1.67-.42c1-.23,1.45-.79,1.61.23a9.77,9.77,0,0,1,0,1.21V29.65h-6V5.43c0-.87-.06-1.31.72-1.84Z" transform="translate(0 0)"/><path class="cls-1" d="M99.48,17.94V29.65H93.91V27.09C92.81,29,90.67,30,87.66,30,82.85,30,80,27.28,80,23.74s2.56-6.14,8.81-6.14h4.73c0-2.56-1.52-4.05-4.73-4.05a9.89,9.89,0,0,0-5.91,1.91L80.75,11.3A15.79,15.79,0,0,1,89.6,8.82C95.86,8.82,99.48,11.72,99.48,17.94Zm-6,5.22V21.07H89.45c-2.78,0-3.66,1-3.66,2.4S87.05,26,89.15,26A4.38,4.38,0,0,0,93.53,23.16Z" transform="translate(0 0)"/><path class="cls-1" d="M127.21,19.39C127.21,25.83,122.75,30,117,30a8,8,0,0,1-6.18-2.47v9.57h-6V15.51c0-1.26-.49-3.51.73-4.23a16.79,16.79,0,0,1,4.89-2,5.19,5.19,0,0,1,.06,2.25A8,8,0,0,1,117,8.82C122.75,8.82,127.21,12.94,127.21,19.39Zm-6,0c0-3.55-2.25-5.69-5.23-5.69s-5.23,2.14-5.23,5.69S113,25.07,116,25.07,121.19,22.94,121.19,19.39Z" transform="translate(0 0)"/><path class="cls-1" d="M130.82,3.16a6.73,6.73,0,0,1,1.26-1.42C132.9,1,134.84-.15,136,0s1.86,1.8,1.86,2.81a3.43,3.43,0,0,1-3.71,3.44,3.81,3.81,0,0,1-3-1.31c-.41-.5-.67-.89-.49-1.47A2.45,2.45,0,0,1,130.82,3.16ZM132.2,11a18.13,18.13,0,0,1,2-.89,17.2,17.2,0,0,1,1.74-.64c.66-.18,1-.39,1.23.22a4.16,4.16,0,0,1,0,1.22V29.65h-5.95V13.44c0-1.11-.22-1.72.83-2.34Z" transform="translate(0 0)"/><path class="cls-1" d="M155.9,28.66A8.5,8.5,0,0,1,151.05,30c-4.84,0-7.66-2.47-7.66-7.36V14.16h-3.17V9.58h3.17s0-1.39,0-1.48c0-1,.36-1.19,1.22-1.7A15.1,15.1,0,0,1,148.13,5c1.23-.35,1.21-.24,1.21.9V9.58h5.11v4.58h-5.11v8.36a2.39,2.39,0,0,0,2.55,2.7,4,4,0,0,0,2.41-.76Z" transform="translate(0 0)"/><path class="cls-2" d="M165.57,2.87A5.47,5.47,0,0,1,167.63,2a11.11,11.11,0,0,1,.05,3.21V26.14h14.95v2.44H164.86V5.8a11.33,11.33,0,0,1,0-1.93A1.81,1.81,0,0,1,165.57,2.87Z" transform="translate(0 0)"/><path class="cls-2" d="M204.44,8.65c.14.1.08.3.09.5,0,.6,0,1.19,0,1.79V28.58h-2.6V24.92a8,8,0,0,1-7.21,3.85c-5.11,0-8.47-2.86-8.47-8.62V11a1.75,1.75,0,0,1,.48-1.42c.36-.45,1.31-1.11,2-.9.39.13.28.43.28.84V19.88c0,4.28,2.22,6.45,6,6.45,4.2,0,6.83-2.71,6.83-7.28V10.9c0-.56-.12-.9.34-1.27a4.27,4.27,0,0,1,1.09-.6c.17-.07.95-.48,1.12-.42Z" transform="translate(0 0)"/><path class="cls-2" d="M220.82,17V28.58H218V17.21c0-4.23-2.28-6.4-6.21-6.4-4.44,0-7.23,2.67-7.23,7.24V28.58h-2.79V12.75a10.73,10.73,0,0,1,0-2.12c.16-.73,1-1.2,1.59-1.52.26-.14.75-.51,1-.26s.07,1,.07,1.29a6.34,6.34,0,0,0,.05,1.45c.12.5.4,0,.63-.31a7.45,7.45,0,0,1,1.9-1.59,10.32,10.32,0,0,1,5.28-1.33C217.37,8.36,220.82,11.19,220.82,17Z" transform="translate(0 0)"/><path class="cls-2" d="M243.91,9.3s0,0,0,.07a.6.6,0,0,1,0,.19V26.89c0,6.9-3.4,10-10,10-3.67,0-7.25-1.11-9.35-3.09l1.37-2.06a11.94,11.94,0,0,0,7.9,2.75c5.07,0,7.4-2.33,7.4-7.29V24.67a9,9,0,0,1-7.82,3.89c-5.72,0-10.07-4-10.07-9.76s4.35-9.69,10.07-9.69a9,9,0,0,1,7.94,4V11.25a2.74,2.74,0,0,1,0-.7c.07-.18.31-.31.48-.41a8.6,8.6,0,0,1,1.35-.61c.15,0,.5-.27.65-.25Zm-2.6,9.5c0-4.35-3.21-7.33-7.63-7.33s-7.59,3-7.59,7.33,3.16,7.36,7.59,7.36S241.31,23.15,241.31,18.8Z" transform="translate(0 0)"/><path class="cls-2" d="M247.34,26.2l1.22-2.14a12.1,12.1,0,0,0,7.13,2.25c3.82,0,5.38-1.29,5.38-3.28,0-5.22-13-1.1-13-9,0-3.28,2.83-5.72,7.94-5.72a13.51,13.51,0,0,1,7.09,1.87l-1.18,2.17A10.26,10.26,0,0,0,256,10.6c-3.63,0-5.23,1.41-5.23,3.31,0,5.42,13,1.34,13,9.05,0,3.47-3,5.72-8.28,5.72C252.18,28.68,249,27.61,247.34,26.2Z" transform="translate(0 0)"/></g></g></svg>